<svg width="235" height="100" viewBox="0 0 235 100" fill="none" xmlns="http://www.w3.org/2000/svg">
<rect y="59" width="25" height="41" fill="#0B8C5D"/>
<circle cx="12.5" cy="12.5" r="12.5" fill="#FFD700"/>
<path d="M0 35C3.28305 35 6.53395 35.6466 9.56709 36.903C12.6002 38.1594 15.3562 40.0009 17.6777 42.3223C19.9991 44.6438 21.8406 47.3998 23.097 50.4329C24.3534 53.4661 25 56.717 25 60L0 60V35Z" fill="#0B8C5D"/>
<rect x="35" width="25" height="100" fill="#F24130"/>
<rect x="105" width="25" height="100" fill="#8AD0B9"/>
<rect x="70" y="25" width="25" height="75" fill="#0367A6"/>
<path d="M70 0C73.283 3.91499e-08 76.5339 0.646644 79.5671 1.90301C82.6002 3.15938 85.3562 5.00087 87.6777 7.32233C89.9991 9.6438 91.8406 12.3998 93.097 15.4329C94.3534 18.4661 95 21.717 95 25L70 25V0Z" fill="#0367A6"/>
<circle cx="152.5" cy="12.5" r="12.5" fill="#F2A2A2"/>
<circle cx="152.5" cy="50.5" r="12.5" fill="#FFD700"/>
<circle cx="152.5" cy="87.5" r="12.5" fill="#0367A6"/>
<circle cx="222.5" cy="12.5" r="12.5" fill="#F24130"/>
<circle cx="187.5" cy="87.5" r="12.5" fill="#F2A2A2"/>
<path d="M200 50C193.37 50 187.011 47.3661 182.322 42.6777C177.634 37.9893 175 31.6304 175 25C175 18.3696 177.634 12.0107 182.322 7.32233C187.011 2.63392 193.37 -7.90669e-08 200 0V25L200 50Z" fill="#8AD0B9"/>
<path d="M210 50C216.63 50 222.989 52.6339 227.678 57.3223C232.366 62.0107 235 68.3696 235 75C235 81.6304 232.366 87.9893 227.678 92.6777C222.989 97.3661 216.63 100 210 100V75L210 50Z" fill="#0367A6"/>
</svg>
