<svg width="95" height="100" viewBox="0 0 95 100" fill="none" xmlns="http://www.w3.org/2000/svg">
<rect y="59" width="25" height="41" fill="#0B8C5D"/>
<circle cx="82.5" cy="12.5" r="12.5" fill="#F24130"/>
<circle cx="12.5" cy="12.5" r="12.5" fill="#FFD700"/>
<circle cx="47.5" cy="87.5" r="12.5" fill="#F2A2A2"/>
<path d="M60 50C53.3696 50 47.0107 47.3661 42.3223 42.6777C37.6339 37.9893 35 31.6304 35 25C35 18.3696 37.6339 12.0107 42.3223 7.32233C47.0107 2.63392 53.3696 -7.90669e-08 60 0V25L60 50Z" fill="#8AD0B9"/>
<path d="M70 50C76.6304 50 82.9893 52.6339 87.6777 57.3223C92.3661 62.0107 95 68.3696 95 75C95 81.6304 92.3661 87.9893 87.6777 92.6777C82.9893 97.3661 76.6304 100 70 100V75L70 50Z" fill="#0367A6"/>
<path d="M0 35C3.28305 35 6.53395 35.6466 9.56709 36.903C12.6002 38.1594 15.3562 40.0009 17.6777 42.3223C19.9991 44.6438 21.8406 47.3998 23.097 50.4329C24.3534 53.4661 25 56.717 25 60L0 60V35Z" fill="#0B8C5D"/>
</svg>
