<svg width="750" height="750" viewBox="0 0 750 750" fill="none" xmlns="http://www.w3.org/2000/svg">
<rect width="750" height="750" fill="white"/>
<rect width="473.5" height="728.5" transform="translate(128 11)" fill="white"/>
<path d="M412.5 218L407.5 210L410 204.5L415 202L422 198.5L429.5 196L436 193.5L445 191.5L454.5 190H463L474 191.5L483 193.5L493.5 198.5L499 203.5L501.75 209.75L503 216L500.5 211.5L496 206L489.5 202L479 198.5L467.5 197L454.5 199.5L446 202L437 204.5L426 210L418 217L412.5 218Z" stroke="#162A36" stroke-width="4"/>
<path d="M332 215.5L336.5 210.5L334 205.5L328 201.5L322 199C318.833 197.667 311.1 195.2 305.5 192L296.5 190.5L287.5 189.5H281.5L275 191L269 194L262.5 197.5L255 201.5L246.5 205.5L249 210.5L255 207L259 205.5L264.5 203.5L269 201.5L275 200L281.5 199L287.5 200H292L297.5 201.5L304 203.5L311.5 207L319.5 210.5L328 215.5H332Z" stroke="#162A36" stroke-width="4"/>
<path d="M281 33C306 11 388.5 10.5 388.5 10.5C388.5 10.5 470.633 21 480.5 33C490.367 45 519.169 63.8015 532 86.5C545.123 109.715 546.667 134 550 146.5C553.333 159 562.5 196.5 562.5 196.5C562.5 196.5 567.611 228.307 572.5 245.5C575.442 255.845 577.26 262.27 578 273C579 287.5 580 290 580 305C580 315.755 574.934 332.524 572.5 343C567.024 366.567 569.647 369.255 565 393C559.22 422.534 545.695 436.986 543.5 467C542.731 477.516 541.147 483.722 543.5 494C545.819 504.131 550.351 508.705 555 518C561.526 531.046 572.5 536.413 572.5 551C572.5 570.5 589 586.5 589 586.5C589 586.5 613.39 621.593 596.5 613.5C572.5 602 589 636 589 636C589 636 573.685 626.516 565 619C539 596.5 562.013 671.971 545 632.5C532.5 603.5 545 615.121 524.5 627.5C518.282 631.255 520.035 629.4 517 636C514.39 641.677 515.283 645.992 517 652C519 659 517 669 517 669C517 669 502 619.5 517 681.5C532 743.5 513.815 689.599 509.5 692.5C503.018 696.858 495.091 687.046 489.5 692.5C483.77 698.091 489.5 713 489.5 713C489.5 713 483.5 713 471.5 699.5C459.5 686 466.5 722 461.5 692.5C456.5 663 450.992 698.821 448 705.5C442.233 718.372 461.5 739 461.5 739L436.5 721L421.5 729V713V692.5L411 699.5L400 705.5L368 721C368 721 391.206 675.354 400 644C406.174 621.987 405.357 608.655 411 586.5C414.568 572.49 418.162 565.067 421.5 551C426.697 529.102 430 494 430 494C430 494 450.637 447.311 461.5 416.5C491.756 330.686 509.5 188.5 509.5 188.5L489.5 177L368 158.5C330.667 162.333 252 168.3 252 161.5L247.5 256.5L249.5 291.5L276.5 373L301.5 416.5V433.5V458.5L294.5 481L285.5 505.5C285.5 505.5 280.186 518.131 275.5 525.5C272.65 529.982 269.588 531.616 267.5 536.5C263.815 545.118 268.264 551.159 267.5 560.5C266.66 570.77 263.973 576.242 263 586.5C261.801 599.135 263 606.308 263 619C263 625.639 263.979 629.434 263 636C260.863 650.339 246 669 246 669C246 669 254.442 649.376 256 636C257.017 627.272 257.36 622.181 256 613.5C254.26 602.391 246 586.5 246 586.5C246 586.5 248.625 606.582 246 619C243.825 629.288 238.314 633.743 236 644C232.778 658.286 239.5 694 236 681.5C232.5 669 231 674.5 231 665.5C231 656.5 231 660 229 652C227 644 221 663.5 221 663.5C221 663.5 223.5 676.5 213 681.5C202.5 686.5 196.5 704 196 699.5C195.5 695 185.5 699.5 179 713C172.5 726.5 172 692.5 172 692.5V681.5H160C155.899 681.5 153.432 682.663 149.5 681.5C142.88 679.542 139.59 675.399 137 669C134.509 662.846 122.5 665.5 137 652C151.5 638.5 149.5 601.5 149.5 601.5L127.5 613.5C127.5 613.5 130.572 582.902 137 564.5C145.835 539.209 172 505.5 172 505.5C172 505.5 189.5 486 196 467C202.5 448 196 356.5 196 356.5C196 356.5 200.026 260.996 213 201.5C220.743 165.992 236.492 123.687 238.5 112C240.508 100.313 256 55 281 33Z" fill="#F24130"/>
<path d="M286 33.5C311 11.5 393.5 11 393.5 11C393.5 11 467 11 485.5 33.5C494.646 44.6234 509.169 68.0892 522 90.7877C535.123 114.003 546.477 136.416 548.5 144C550.539 151.646 558.034 177.998 564.893 202C571.491 225.087 577.5 246 577.5 246L585 272.5V305.5L577.5 332L570 393.5L548.5 467.5V494.5L560 518.5L577.5 551.5L594 587L601.5 614L594 636.5L570 619.5H548.5H537.5L522 636.5V652.5V669.5V682L514.5 693H494.5V713.5L476.5 700L466.5 693L447.5 700L466.5 739.5L435 700L426.5 729.5V713.5V693H416H396L373 721.5L405 644.5L416 587L426.5 551.5L435 494.5L466.5 417L514.5 189L494.5 177.5L373 159C335.667 162.833 261 168.8 261 162V217.5L306.5 417V434V459L299.5 481.5L290.5 506L280.5 526L272.5 537V561L268 587V619.5V636.5L251 669.5L261 636.5V614L251 587V619.5L241 644.5L251 682L241 669.5L234 652.5L226 664L218 682L201 700L184 713.5L177 693V682H165H154.5L142 669.5V652.5L154.5 614L128 602L142 565C142 565 166.5 526 177 506C187.5 486 194.5 486.5 201 467.5C207.5 448.5 201 357 201 357C201 357 205.026 261.496 218 202C225.743 166.492 241.492 124.187 243.5 112.5C245.508 100.813 261 55.5 286 33.5Z" stroke="#162A36" stroke-width="4"/>
<path d="M248.059 274.964C247.558 265.601 250.363 233.77 251.565 167.543L253.568 142.413L255.071 155.717L257.575 157.196L278.61 153.746L307.157 145.862H348.225L370.762 149.804L376.772 145.862L383.783 149.804H395.803L406.321 136.5V149.804L414.334 153.746H436.871H449.893L467.922 158.674L483.448 164.094L485.451 155.225V145.862L491.962 166.065L498.723 169.761L505.484 177.399L510.993 188.732C510.993 188.732 514.363 202.129 515 210.906C515.837 222.448 514.034 228.945 512.997 240.471C511.659 255.332 511.922 263.892 508.489 278.413C506.498 286.837 504.215 291.239 501.979 299.601C499.129 310.256 498.041 316.363 495.969 327.196C495.032 332.092 494.62 334.858 493.715 339.761C492.489 346.408 490.46 356.761 490.46 356.761C490.46 356.761 487.895 367.138 485.451 373.514C482.856 380.287 481.531 384.281 477.438 390.268C472.715 397.175 468.763 400.095 462.413 405.543C456.184 410.888 452.177 413.253 445.385 417.862C434.207 425.448 428.461 431.04 415.836 435.848C407 439.213 401.669 440.261 392.297 441.514C384.921 442.501 380.708 442.533 373.266 442.5C366.41 442.47 362.484 442.732 355.737 441.514C348.565 440.221 344.72 438.564 337.958 435.848C331.606 433.297 328.137 431.585 322.182 428.21C312.947 422.976 300 412.5 300 412.5L291.5 399.5L282 383.5C282 383.5 274.657 368.718 270.5 359C270.5 359 261.506 337.188 257.074 322.761C253.918 312.489 250.062 296.152 250.062 296.152L248.059 274.964Z" stroke="#162A36" stroke-width="4"/>
<path d="M479.5 241.5C459.197 217.045 436.5 217.5 415.5 246C423.5 247.5 424 249 439.5 252C442.5 252.581 455.5 257 479.5 241.5Z" stroke="#162A36" stroke-width="4"/>
<path d="M274 238.5C270.5 233.501 315.944 206.238 331 245.5L317.5 248.5H301C301 248.5 277.5 243.5 274 238.5Z" stroke="#162A36" stroke-width="4"/>
<circle cx="446.5" cy="235" r="12.5" stroke="#162A36" stroke-width="4"/>
<circle cx="304.5" cy="234" r="12.5" stroke="#162A36" stroke-width="4"/>
<circle cx="446" cy="235.5" r="6" stroke="#162A36" stroke-width="4"/>
<circle cx="304" cy="234.5" r="6" stroke="#162A36" stroke-width="4"/>
<path d="M269.017 557.39C293.885 567.701 318.071 575.164 345.192 575.164C359.651 575.164 401.552 581.785 408.671 567.547" stroke="#162A36" stroke-width="4" stroke-linecap="round" stroke-linejoin="round"/>
<path d="M391.565 575.367C398.305 575.206 402.708 572.649 408.267 569.707C412.083 567.686 414.953 564.23 419.123 562.84" stroke="#162A36" stroke-width="4" stroke-linecap="round" stroke-linejoin="round"/>
<path d="M478.393 243.5C478.104 243.5 479.446 243.901 479.802 244.028C480.908 244.423 479.595 244.175 479.098 244.204C478.3 244.251 479.979 246.6 477.963 244.987C477.333 244.483 475.224 243.482 475.224 244.909C475.224 245.982 476.718 247.675 475.732 247.394C474.484 247.037 474.023 246.317 472.582 246.317C471.06 246.317 471.35 248.287 471.35 249.311C471.35 250.513 468.575 248.016 468.2 249.331C467.895 250.396 469.82 252.166 468.532 251.522C467.327 250.92 466.393 250.896 465.01 250.896C463.252 250.896 463.707 251.819 464.228 253.009C464.235 253.026 461.194 252.021 461.136 253.009C461.114 253.393 461.965 254.26 461.645 254.046C461.335 253.839 460.176 253.317 460 253.009C459.319 251.818 457.967 252.623 457.967 253.889C457.967 255.7 456.863 255.014 455.775 254.144C454.341 252.997 455.508 256.534 454.093 255.905C453.017 255.427 452.411 254.77 451.099 254.77C450.306 254.77 450.605 255.6 450.571 256.179C450.519 257.065 448.682 255.207 448.5 255.103C447.74 254.668 447.753 254.77 447.753 254.77C446.957 254.77 446.742 255.787 446.521 255.787C445.795 255.787 444 253.5 444 256L442.282 254.77L442 256.5L440.5 254.77C438.753 253.994 440.128 256.532 439.5 255.905C439.164 255.569 436.5 252.852 436.5 254.5C436.878 255.508 434.444 252.344 434.214 252.344C432.996 252.344 434.293 255.183 432.961 252.852C432.679 252.358 430.848 250.107 430.848 251.776C430.848 252.905 429.505 250.695 428.911 250.563C427.5 250 427 252.344 427 251.5C426.582 250.424 424.214 248.717 423.1 248.783C422.408 248.824 423.5 251 423 250.5C422.601 250.386 420.951 248.559 420.5 248.431C419.933 248.269 420.672 248.387 419.931 248.431C419.338 248.465 419.464 249.345 418.874 248.607C417.801 247.265 416.705 247.002 415 246.67L424.5 245.5L442.549 249.82L455.775 249.115L465.01 245.5L475.732 242L477 241.5L477.963 243" stroke="#162A36" stroke-width="4" stroke-linecap="round" stroke-linejoin="round"/>
<path d="M331.139 244.801C332.414 244.552 332.77 244.062 334.27 244.062C334.481 243.64 332.655 242.743 331.77 242.562C329.77 242.062 331.976 241.47 333.384 240.062C330.884 240.562 330.825 240.128 330.76 240.062C330.27 239.562 329.148 237.587 331.139 236.562C329.27 237.525 328.77 237.498 328.77 236.562C328.77 234.944 330.983 232.506 329.922 233.331C328.048 234.789 326.27 234.562 326.27 232.562C326.27 231.562 328.008 228.387 327.731 228.732C326.441 230.345 324.77 231.062 323.77 231.062C323.27 231.062 322.862 230.452 322.862 228.732C322.862 227.055 324.021 224.849 321.888 227.515C319.857 230.054 318.77 227.528 318.77 226.062C318.77 224.627 320.27 220.076 317.77 223.376C317.27 224.062 315.77 225.562 314.77 225.062C313.27 224.562 313.77 222.809 313.77 221.062C314.27 218.062 312.215 222.388 312.149 223.376C311.27 223.376 308.408 219.558 308.011 219.062C306.289 216.909 309.039 221.58 308.011 222.403C306.46 223.643 299.679 221.486 298.27 220.076C295.864 217.67 300.262 223.376 299.27 223.376C297.645 223.376 296.77 223.562 291.27 221.062C292.38 221.332 293.361 224.376 292.27 224.134C290.228 223.68 288.77 223.062 286.77 222.062C286.344 222.02 289.656 224.579 289.27 225.062C288.408 226.139 282.344 223.391 282.77 223.562C283.23 223.746 285.496 226.606 285.77 227.062C285.863 227.218 284.27 227.062 283.27 227.062C282.397 227.062 279.27 226.469 278.27 225.562C279.77 227.062 282.238 228.562 280.77 228.562C280.77 228.562 280.27 228.562 278.77 228.562C277.822 228.562 274.842 228.062 274.77 228.062C273.93 228.062 277.558 229.732 277.822 230.062C278.301 230.661 274.27 230.562 272.27 230.062C271.144 229.889 276.795 232.655 275.631 232.655C274.007 232.655 265.699 231.361 267.77 232.062C268.581 232.494 268.77 232.728 270.27 233.062C272.27 233.506 273.294 234.062 274.27 234.062C275.087 234.048 264.166 235.36 266.27 236.062C270.77 237.062 268.5 237 273.5 237.5L274.27 236L277 233.062L280.5 231L285 228.562L289 227L292.27 226.062L297.27 225.062L301.77 224.562L308.011 225.062L313.77 226.562L318.27 228.732L321.888 231.062L324.27 233.331L326.27 236.062L328.27 238.562L329.77 241.562L331.139 244.801Z" stroke="#162A36" stroke-width="4" stroke-linecap="round" stroke-linejoin="round"/>
<path d="M271.466 240.357C268.882 240.357 271.891 239.162 272.926 238.409L273.5 238L274.5 239.5L276.5 241L279 242L282 243C284.8 244.2 287.833 245.167 289 245.5L293 247L297 248.147L300.5 248.5L305.312 248.878H307.5H311.5L316.5 248.5L319.5 248L324.5 247L328 246.5L331 246C330.413 246.921 329 247.5 329.5 248.878C328 246.5 327 247 327 248.878C327 250.756 325.402 247.584 324.5 248C323.29 248.558 323.5 251.325 323 249.662C322.5 248 321.5 248 321.5 248C321.5 248 320.939 249.734 320.5 250.393C320.423 250.508 319.724 248.877 318 248.878C317.661 249.413 317.384 251.618 317 251.448C315.8 250.914 316.188 249.161 315 249.5C313.957 249.798 314.973 252.556 314 251.339C313.092 250.204 313.092 249.354 311.5 250.5C310.118 251.495 310.746 252.336 309.5 251.339C308.687 250.689 306 249.5 305.312 251.339C303.312 250.447 302.5 249 301.5 251.339C298 249.662 299.5 248.878 298 249.5C297.257 249.5 295.599 252.281 295.5 250.5C295.429 249.212 294.39 249.191 293 249.5C291.969 249.729 291 250.967 291 249.662C291 248.304 288.787 248.317 287.777 248.878C286.513 249.58 286.56 249.38 286.56 248.147C286.56 246.619 285.298 247.828 284.18 248.147C282.747 248.557 283.609 247.87 283 246.5C282.548 245.484 282.5 245.5 281.5 246.5L280.5 247.5C280.5 246 279.602 244.177 278.661 245.118C277.433 246.346 278.283 244.765 278.283 244.009C278.283 243.077 276.403 244.198 275.442 244.198C273.854 244.198 275.722 242.395 275.361 242.034C275.224 241.897 272.726 242.942 272.467 242.034C272.094 240.729 273.601 240.357 271.466 240.357Z" stroke="#162A36" stroke-width="4" stroke-linecap="round" stroke-linejoin="round"/>
<path d="M385.481 233.093C385.481 228.54 389.076 224.286 390.123 219.633C395 217 394.919 217.054 396.5 216C398 215 401.262 211.074 401.262 212.207C401.262 214 401.377 214.413 400.798 215.456C400.024 216.848 399.405 219.897 399.405 221.49C399.405 230.772 400.333 240.349 400.333 249.337C400.333 253.704 401.262 257.754 401.262 261.869C401.262 265.984 401.014 271.035 401.262 275.5C401.492 279.648 404.046 283.705 404.046 287.86V300C401.921 297.638 400.5 292 396 289.252C392.5 287.115 380.535 284.971 375.683 289.252C374.331 290.445 375.683 284.5 375.683 284.5C375.794 282.503 375.683 282 376.199 278.5C376.199 275.728 377.5 273 378.5 266.5C381.5 256 380.5 254.5 383.418 243.768C384.307 240.5 385 236.5 385.481 233.093Z" stroke="#162A36" stroke-width="4" stroke-linecap="round" stroke-linejoin="round"/>
<path d="M347.194 226.491C348.283 227.886 350 231 351 232.5C352 234 352.583 236.049 353.205 237.449C354.735 240.892 354.042 246.321 354.042 250.119C354.042 254.5 354.325 258.947 353.395 263.131C352.582 266.79 351.5 270.5 350.5 275.5C350.063 277.686 348.791 280.312 347.194 283.182M347.194 283.182C340.971 294.358 329.081 308.798 343.042 315.779C343.791 316.736 345.308 317.915 345.824 318.947C342.274 320.722 338.812 322.498 336.236 325.796C336.795 325.796 336 325.796 333.648 322.904C332.5 321 332 319.25 331.5 318C330.5 315.5 330.589 311.69 330.757 308.674C330.858 306.851 331.608 304.103 332.279 302.358C332.683 301.306 333.648 299.261 335.931 297.032C337.5 295.5 337.963 294.797 339 293.5C341.178 290.777 341.5 291 344.5 286.5L347.194 283.182Z" stroke="#162A36" stroke-width="4" stroke-linecap="round" stroke-linejoin="round"/>
<path d="M404.301 300.366C405.03 300.783 406.308 301.092 406.848 301.767C407.274 302.3 408.315 303.559 408.829 304C409.91 304.927 410.159 307.013 410.159 308.404C410.159 309.926 410.414 311.414 410.414 312.974C410.414 314.242 410.159 315.666 410.159 316.794C410.159 317.96 409.373 319.253 408.829 320.233C407.939 321.835 407.5 322.976 405.829 323.855C404.261 324.68 402.547 325.201 400.99 325.893C400.265 326.215 397.411 326.627 397.17 327.11M357.728 336.554C357.529 336.554 357.719 336.294 357.573 336.112C357.393 335.887 357.529 335.078 357.529 334.805C357.529 334.035 357.528 333.015 357.318 332.282C356.89 330.783 356.874 329.373 356 328C355.5 327 355 325.5 354.5 325C354.364 324.523 352.753 323.599 352.349 323.361C351.494 322.858 350.666 322.376 349.759 321.922C348.847 321.466 347.861 321.366 346.969 320.97C345.5 320.97 343.75 320.308 342.5 320.97C341.5 321.5 340.5 321.922 339.797 322.5C338.5 323.361 337.5 324.5 336.41 325.597C337.4 326.091 338.656 326.882 339.797 327.29C342.167 328.136 344.887 328.086 347.169 329.227C348.191 329.738 349.019 329.916 350 330.5C350.547 330.826 351.952 331.301 353 332.282C354.3 333.499 355.483 334.141 356 334.805C356.517 335.47 357.533 335.668 357.728 336.554ZM357.728 336.554C358.5 336.754 359.153 336.754 359.41 336.754C360.478 336.754 361.455 336.554 362.521 336.554C363.723 336.554 364.897 336.754 366.107 336.754H371.276C372.187 336.754 373.467 337.182 373.467 336.056M373.467 336.056C373.467 335.099 373.268 334.234 373.268 333.267C373.268 330.812 374.694 328.02 375.847 325.906C376.899 323.977 378.676 322.149 380.54 321.114C382.596 319.972 385.832 319.819 388.111 319.819C389.819 319.819 391.164 319.689 392.793 320.461C393.668 320.875 394.678 321.542 395.383 322.21C395.766 322.572 397.035 323.12 397.165 323.704C397.311 324.362 397.354 325.4 397.619 325.995C398.402 327.758 391.586 328.389 390.302 328.784C387.521 329.64 384.583 330.094 381.835 331.075C379.771 331.813 377.54 332.124 375.46 332.924C374.52 333.285 373.467 334.74 373.467 336.056Z" stroke="#162A36" stroke-width="4" stroke-linecap="round" stroke-linejoin="round"/>
<path d="M462.654 347.577C462.654 360.598 462.752 373.48 461.405 386.273C460.48 395.063 452.667 402.979 452.667 411.238" stroke="#162A36" stroke-width="4" stroke-linecap="round" stroke-linejoin="round"/>
<path d="M411.937 238.002C413.569 234.067 415.569 226.139 420.008 224.166C424.206 222.301 427.922 217.999 431.923 215.881C434.59 214.469 440.077 214.173 443.069 214.173C446.784 214.173 450.499 214.173 454.215 214.173C462.12 214.173 466.901 218.061 473.432 221.689C476.473 223.379 480.119 226.025 481.887 229.12C482.735 230.603 485.344 235.119 486.499 235.696" stroke="#162A36" stroke-width="4" stroke-linecap="round" stroke-linejoin="round"/>
<path d="M463 350.5C470.464 347.587 475.5 347 482.5 343C484.34 341.354 486.5 339.5 490 337.5C491.428 335.073 498 332 499 328.5M462.67 350.23C462.67 345.226 464.575 341.266 468.222 337.76C469.767 336.274 471.853 334.96 473.816 334.087C475.544 333.319 477.668 333.015 479.197 332.166C481.814 330.712 485.043 330.541 487.652 329.091C490.083 327.74 497.589 330.356 498.798 327.938" stroke="#162A36" stroke-width="4" stroke-linecap="round" stroke-linejoin="round"/>
<path d="M480.311 241.598C481.499 241.937 482.713 242.004 484.028 241.931C485.509 241.848 486.091 240.874 484.204 240.874C482.969 240.874 482.185 240.445 481.035 240.189C479.885 239.934 477.943 239.817 480.154 239.817C481.3 239.817 482.253 239.584 483.324 239.465C483.814 239.411 486.566 237.649 485.594 237.372C485.134 237.24 484.634 238.058 484.459 238.409C484.216 238.893 485.531 237.907 484.889 237.724C482.62 237.076 480.273 237.718 478.041 236.726C477.296 236.395 477.696 236.648 478.393 236.648C479.036 236.648 479.386 236.447 479.978 236.315C480.812 236.13 481.607 235.001 482.424 234.535C482.732 234.359 480.768 234.535 480.154 234.535C479.061 234.535 478.115 234.182 476.985 234.182C475.847 234.182 473.899 233.478 476.104 233.478C477.236 233.478 477.684 233.291 478.589 232.774C478.953 232.566 480.792 230.714 480.076 231.287C478.877 232.246 475.269 230.909 474.011 230.68C473.64 230.613 470.808 230.361 471.702 230.308C473.088 230.227 473.674 229.847 474.871 229.174C474.871 229.174 473 229.174 471.702 229.174C470.404 229.174 469.201 228.547 468.004 228.547C466.762 228.547 468.754 227.746 469.5 227C471.127 225.373 468.5 226.356 467.476 226.356C465.5 226.356 464 225.338 462.388 225.045C460.62 224.724 462.341 224.745 463.5 224C465.804 222.519 462.241 223.5 461 223.5C458.765 223.5 457.027 223.044 454.797 222.913C454.462 222.893 455.664 220.974 455.853 220.643C456.414 219.661 456.241 219.547 454.5 220.995C453.5 222 453.274 221.897 452.684 222.56C451.98 223.353 450.923 223.343 450.923 222.208C450.923 221.073 451.953 220.211 452.332 219.547C453.351 217.763 451.779 218.711 450.923 219.117C449.267 219.901 447.286 220.999 446.168 222.365C445.004 223.787 445.779 221.809 446.012 220.995C446.214 220.288 446.91 218.722 445.64 219.469C444.239 220.293 442.883 222.074 441.61 223.147C440.872 223.769 438.5 226.224 438.5 223.5C438.5 222.964 438.831 221.235 438.5 221.5C437.727 222.118 435.896 227.06 434.996 226.16C433.848 225.013 434.717 220.195 432.961 224.145C432.389 225.433 432.356 229.86 430.77 228.274C430.064 227.567 430.737 226.133 430.477 225.221C430.399 224.951 429.62 226.908 429.44 227.315C428.995 228.314 428.444 229.919 428.383 231.013C428.306 232.406 427.501 230.654 427.346 230.113C427.255 229.794 426.974 226.704 426.974 228.547C426.974 229.547 426.284 230.779 425.839 231.717C425.484 232.467 424.826 234.264 424 234.5C423.116 234.753 423.5 232.258 423.5 231.717C423.5 230.875 423 233 422.122 234.965C421.244 236.93 421.383 236.97 421.339 237.704C421.149 240.935 420.283 237.094 420.283 235.767C420.283 234.834 419.578 233.472 419.578 235.239C419.578 236.203 418.924 237.206 418.874 238.056C418.842 238.607 418.249 240.886 418.189 240.678C418.042 240.164 418.235 238.096 417.309 238.096C416.827 238.096 416.785 240.794 416.761 241.226C416.684 242.602 415.486 244.56 415 245.805L418.5 241.5L425.839 234L433.5 228.274L441.61 224.497L449 223.5L458 225.045L464 228.274L469.5 231.717L480.311 241.598ZM480.311 241.598C478.638 241.12 478.393 241.717 478.393 239.465" stroke="#162A36" stroke-width="4" stroke-linecap="round" stroke-linejoin="round"/>
<path d="M313.5 357L320 362.5L330 366L340.5 368L352.5 370H383L398 368L411 366L423.5 362.5L435.5 359M313 355.5L330.5 358.648H354.5L361 357.598H371L377 358.648L381 357.598H392L397 358.648L407 360.221H427.5L437 358.648L427.5 364.943L421.5 370.189L415 374.91L409.5 378.582L401.5 382.254L393.5 384.877L385 385.926H371L356.5 387.5L345 384.877L337 382.254L328.5 375.959L321 370.189L317 364.943L313 355.5Z" stroke="#162A36" stroke-width="4"/>
<path d="M322.004 318C324.443 313.61 326.143 310.621 328.066 305.983C325.753 307.139 323.876 308.333 322.004 310.412C318.522 314.281 314.768 316.103 310.5 318C304.426 320.699 303.601 323.036 299.74 328C295.301 333.708 295.544 344.658 295.544 351.619C295.544 355.755 294.926 359.025 296.5 364.732C297.539 368.5 299.108 371.195 299.74 372.076C301.838 375 304.565 377.058 302.072 373.941C301.238 372.899 299.822 366.207 299.74 364.732C299.547 361.26 299.74 357.72 299.74 354.241C299.74 351.368 299.973 346.676 302.072 342.5C306.733 330.676 305 332.5 309.5 329.5C311.5 325 320.45 320.798 322.004 318Z" stroke="#162A36" stroke-width="4" stroke-linecap="round" stroke-linejoin="round"/>
<path d="M331.077 252.112C328.337 255.727 321.941 260.928 317.309 261.957C313.268 262.855 309.166 265.998 304.953 266.233C295.858 266.738 286.728 269.763 277.417 269.763" stroke="#162A36" stroke-width="4" stroke-linecap="round" stroke-linejoin="round"/>
<path d="M414.39 252.818C418.485 256.913 423.011 261.121 428.158 263.408C432.038 265.133 437.552 268.814 441.926 269.057C446.56 269.314 450.76 270.469 455.694 270.469C460.284 270.469 464.873 270.469 469.462 270.469" stroke="#162A36" stroke-width="4" stroke-linecap="round" stroke-linejoin="round"/>
</svg>
