<svg width="479" height="732" viewBox="0 0 479 732" fill="none" xmlns="http://www.w3.org/2000/svg">
<path d="M287.5 209L282.5 201L285 195.5L290 193L297 189.5L304.5 187L311 184.5L320 182.5L329.5 181H338L349 182.5L358 184.5L368.5 189.5L374 194.5L376.75 200.75L378 207L375.5 202.5L371 197L364.5 193L354 189.5L342.5 188L329.5 190.5L321 193L312 195.5L301 201L293 208L287.5 209Z" stroke="black" stroke-width="4"/>
<path d="M207 206.5L211.5 201.5L209 196.5L203 192.5L197 190C193.833 188.667 186.1 186.2 180.5 183L171.5 181.5L162.5 180.5H156.5L150 182L144 185L137.5 188.5L130 192.5L121.5 196.5L124 201.5L130 198L134 196.5L139.5 194.5L144 192.5L150 191L156.5 190L162.5 191H167L172.5 192.5L179 194.5L186.5 198L194.5 201.5L203 206.5H207Z" stroke="black" stroke-width="4"/>
<path d="M156 24C181 1.99999 263.5 1.5 263.5 1.5C263.5 1.5 345.633 12 355.5 24C365.367 36 394.169 54.8015 407 77.5C420.123 100.715 421.667 125 425 137.5C428.333 150 437.5 187.5 437.5 187.5C437.5 187.5 442.611 219.307 447.5 236.5C450.442 246.845 452.26 253.27 453 264C454 278.5 455 281 455 296C455 306.755 449.934 323.524 447.5 334C442.024 357.567 444.647 360.255 440 384C434.22 413.534 420.695 427.986 418.5 458C417.731 468.516 416.147 474.722 418.5 485C420.819 495.131 425.351 499.705 430 509C436.526 522.046 447.5 527.413 447.5 542C447.5 561.5 464 577.5 464 577.5C464 577.5 488.39 612.593 471.5 604.5C447.5 593 464 627 464 627C464 627 448.685 617.516 440 610C414 587.5 437.013 662.971 420 623.5C407.5 594.5 420 606.121 399.5 618.5C393.282 622.255 395.035 620.4 392 627C389.39 632.677 390.283 636.992 392 643C394 650 392 660 392 660C392 660 377 610.5 392 672.5C407 734.5 388.815 680.599 384.5 683.5C378.018 687.858 370.091 678.046 364.5 683.5C358.77 689.091 364.5 704 364.5 704C364.5 704 358.5 704 346.5 690.5C334.5 677 341.5 713 336.5 683.5C331.5 654 325.992 689.821 323 696.5C317.233 709.372 336.5 730 336.5 730L311.5 712L296.5 720V704V683.5L286 690.5L275 696.5L243 712C243 712 266.206 666.354 275 635C281.174 612.987 280.357 599.655 286 577.5C289.568 563.49 293.162 556.067 296.5 542C301.697 520.102 305 485 305 485C305 485 325.637 438.311 336.5 407.5C366.756 321.686 384.5 179.5 384.5 179.5L364.5 168L243 149.5C205.667 153.333 127 159.3 127 152.5L122.5 247.5L124.5 282.5L151.5 364L176.5 407.5V424.5V449.5L169.5 472L160.5 496.5C160.5 496.5 155.186 509.131 150.5 516.5C147.65 520.982 144.588 522.616 142.5 527.5C138.815 536.118 143.264 542.159 142.5 551.5C141.66 561.77 138.973 567.242 138 577.5C136.801 590.135 138 597.308 138 610C138 616.639 138.979 620.434 138 627C135.863 641.339 121 660 121 660C121 660 129.442 640.376 131 627C132.017 618.272 132.36 613.181 131 604.5C129.26 593.391 121 577.5 121 577.5C121 577.5 123.625 597.582 121 610C118.825 620.288 113.314 624.743 111 635C107.778 649.286 114.5 685 111 672.5C107.5 660 106 665.5 106 656.5C106 647.5 106 651 104 643C102 635 96 654.5 96 654.5C96 654.5 98.5 667.5 88 672.5C77.5 677.5 71.5 695 71 690.5C70.5 686 60.5 690.5 54 704C47.5 717.5 47 683.5 47 683.5V672.5H35C30.8995 672.5 28.4321 673.663 24.5 672.5C17.8799 670.542 14.5902 666.399 12 660C9.50913 653.846 -2.5 656.5 12 643C26.5 629.5 24.5 592.5 24.5 592.5L2.5 604.5C2.5 604.5 5.57173 573.902 12 555.5C20.8351 530.209 47 496.5 47 496.5C47 496.5 64.5 477 71 458C77.5 439 71 347.5 71 347.5C71 347.5 75.0263 251.996 88 192.5C95.7429 156.992 111.492 114.687 113.5 103C115.508 91.3133 131 46 156 24Z" fill="#F24130"/>
<path d="M161 24.5C186 2.49999 268.5 2 268.5 2C268.5 2 342 2 360.5 24.5C369.646 35.6234 384.169 59.0892 397 81.7877C410.123 105.003 421.477 127.416 423.5 135C425.539 142.646 433.034 168.998 439.893 193C446.491 216.087 452.5 237 452.5 237L460 263.5V296.5L452.5 323L445 384.5L423.5 458.5V485.5L435 509.5L452.5 542.5L469 578L476.5 605L469 627.5L445 610.5H423.5H412.5L397 627.5V643.5V660.5V673L389.5 684H369.5V704.5L351.5 691L341.5 684L322.5 691L341.5 730.5L310 691L301.5 720.5V704.5V684H291H271L248 712.5L280 635.5L291 578L301.5 542.5L310 485.5L341.5 408L389.5 180L369.5 168.5L248 150C210.667 153.833 136 159.8 136 153V208.5L181.5 408V425V450L174.5 472.5L165.5 497L155.5 517L147.5 528V552L143 578V610.5V627.5L126 660.5L136 627.5V605L126 578V610.5L116 635.5L126 673L116 660.5L109 643.5L101 655L93 673L76 691L59 704.5L52 684V673H40H29.5L17 660.5V643.5L29.5 605L3 593L17 556C17 556 41.5 517 52 497C62.5 477 69.5 477.5 76 458.5C82.5 439.5 76 348 76 348C76 348 80.0263 252.496 93 193C100.743 157.492 116.492 115.187 118.5 103.5C120.508 91.8133 136 46.5 161 24.5Z" stroke="black" stroke-width="4"/>
<path d="M176.5 403L358 382.5L326 454.5L312 493L306 536C279 556.5 194.414 546.652 167.5 531C133.553 511.258 163.783 454.316 176.5 403Z" stroke="black" stroke-width="4"/>
<path d="M123.059 265.964C122.558 256.601 125.363 224.77 126.565 158.543L128.568 133.413L130.071 146.717L132.575 148.196L153.61 144.746L182.157 136.862H223.225L245.762 140.804L251.772 136.862L258.783 140.804H270.803L281.321 127.5V140.804L289.334 144.746H311.871H324.893L342.922 149.674L358.448 155.094L360.451 146.225V136.862L366.962 157.065L373.723 160.761L380.484 168.399L385.993 179.732C385.993 179.732 389.363 193.129 390 201.906C390.837 213.448 389.034 219.945 387.997 231.471C386.659 246.332 386.922 254.892 383.489 269.413C381.498 277.837 379.215 282.239 376.979 290.601C374.129 301.256 373.041 307.363 370.969 318.196C370.032 323.092 369.62 325.858 368.715 330.761C367.489 337.408 365.46 347.761 365.46 347.761C365.46 347.761 362.895 358.138 360.451 364.514C357.856 371.287 356.531 375.281 352.438 381.268C347.715 388.175 343.763 391.095 337.413 396.543C331.184 401.888 327.177 404.253 320.385 408.862C309.207 416.448 303.461 422.04 290.836 426.848C282 430.213 276.669 431.261 267.297 432.514C259.921 433.501 255.708 433.533 248.266 433.5C241.41 433.47 237.484 433.732 230.737 432.514C223.565 431.221 219.72 429.564 212.958 426.848C206.606 424.297 203.137 422.585 197.182 419.21C187.947 413.976 175 403.5 175 403.5L166.5 390.5L157 374.5C157 374.5 149.657 359.718 145.5 350C145.5 350 136.506 328.188 132.074 313.761C128.918 303.489 125.062 287.152 125.062 287.152L123.059 265.964Z" stroke="black" stroke-width="4"/>
<path d="M354.5 232.5C334.197 208.045 311.5 208.5 290.5 237C298.5 238.5 299 240 314.5 243C317.5 243.581 330.5 248 354.5 232.5Z" stroke="black" stroke-width="4"/>
<path d="M149 229.5C145.5 224.501 190.944 197.238 206 236.5L192.5 239.5H176C176 239.5 152.5 234.5 149 229.5Z" stroke="black" stroke-width="4"/>
<circle cx="321.5" cy="226" r="12.5" stroke="black" stroke-width="4"/>
<circle cx="179.5" cy="225" r="12.5" stroke="black" stroke-width="4"/>
<circle cx="321" cy="226.5" r="6" stroke="black" stroke-width="4"/>
<circle cx="179" cy="225.5" r="6" stroke="black" stroke-width="4"/>
<path d="M144.017 548.39C168.885 558.701 193.071 566.164 220.192 566.164C234.651 566.164 276.552 572.785 283.672 558.547" stroke="black" stroke-width="4" stroke-linecap="round" stroke-linejoin="round"/>
<path d="M266.565 566.367C273.305 566.206 277.708 563.649 283.267 560.707C287.083 558.686 289.953 555.23 294.123 553.84" stroke="black" stroke-width="4" stroke-linecap="round" stroke-linejoin="round"/>
<path d="M353.393 234.5C353.104 234.5 354.446 234.901 354.802 235.028C355.908 235.423 354.595 235.175 354.098 235.204C353.3 235.251 354.979 237.6 352.963 235.987C352.333 235.483 350.224 234.482 350.224 235.909C350.224 236.982 351.718 238.675 350.732 238.394C349.484 238.037 349.023 237.317 347.582 237.317C346.06 237.317 346.35 239.287 346.35 240.311C346.35 241.513 343.575 239.016 343.2 240.331C342.895 241.396 344.82 243.166 343.532 242.522C342.327 241.92 341.393 241.896 340.01 241.896C338.252 241.896 338.707 242.819 339.228 244.009C339.235 244.026 336.194 243.021 336.136 244.009C336.114 244.393 336.965 245.26 336.645 245.046C336.335 244.839 335.176 244.317 335 244.009C334.319 242.818 332.967 243.623 332.967 244.889C332.967 246.7 331.863 246.014 330.775 245.144C329.341 243.997 330.508 247.534 329.093 246.905C328.017 246.427 327.411 245.77 326.099 245.77C325.306 245.77 325.605 246.6 325.571 247.179C325.519 248.065 323.682 246.207 323.5 246.103C322.74 245.668 322.753 245.77 322.753 245.77C321.957 245.77 321.742 246.787 321.521 246.787C320.795 246.787 319 244.5 319 247L317.282 245.77L317 247.5L315.5 245.77C313.753 244.994 315.128 247.532 314.5 246.905C314.164 246.569 311.5 243.852 311.5 245.5C311.878 246.508 309.444 243.344 309.214 243.344C307.996 243.344 309.293 246.183 307.961 243.852C307.679 243.358 305.848 241.107 305.848 242.776C305.848 243.905 304.505 241.695 303.911 241.563C302.5 241 302 243.344 302 242.5C301.582 241.424 299.214 239.717 298.1 239.783C297.408 239.824 298.5 242 298 241.5C297.601 241.386 295.951 239.559 295.5 239.431C294.933 239.269 295.672 239.387 294.931 239.431C294.338 239.465 294.464 240.345 293.874 239.607C292.801 238.265 291.705 238.002 290 237.67L299.5 236.5L317.549 240.82L330.775 240.115L340.01 236.5L350.732 233L352 232.5L352.963 234" stroke="black" stroke-width="4" stroke-linecap="round" stroke-linejoin="round"/>
<path d="M206.139 235.801C207.414 235.552 207.77 235.062 209.27 235.062C209.481 234.64 207.655 233.743 206.77 233.562C204.77 233.062 206.976 232.47 208.384 231.062C205.884 231.562 205.825 231.128 205.76 231.062C205.27 230.562 204.148 228.587 206.139 227.562C204.27 228.525 203.77 228.498 203.77 227.562C203.77 225.944 205.983 223.506 204.922 224.331C203.048 225.789 201.27 225.562 201.27 223.562C201.27 222.562 203.008 219.387 202.731 219.732C201.441 221.345 199.77 222.062 198.77 222.062C198.27 222.062 197.862 221.452 197.862 219.732C197.862 218.055 199.021 215.849 196.888 218.515C194.857 221.054 193.77 218.528 193.77 217.062C193.77 215.627 195.27 211.076 192.77 214.376C192.27 215.062 190.77 216.562 189.77 216.062C188.27 215.562 188.77 213.809 188.77 212.062C189.27 209.062 187.215 213.388 187.149 214.376C186.27 214.376 183.408 210.558 183.011 210.062C181.289 207.909 184.039 212.58 183.011 213.403C181.46 214.643 174.679 212.486 173.27 211.076C170.864 208.67 175.262 214.376 174.27 214.376C172.645 214.376 171.77 214.562 166.27 212.062C167.38 212.332 168.361 215.376 167.27 215.134C165.228 214.68 163.77 214.062 161.77 213.062C161.344 213.02 164.656 215.579 164.27 216.062C163.408 217.139 157.344 214.391 157.77 214.562C158.23 214.746 160.496 217.606 160.77 218.062C160.863 218.218 159.27 218.062 158.27 218.062C157.397 218.062 154.27 217.469 153.27 216.562C154.77 218.062 157.238 219.562 155.77 219.562C155.77 219.562 155.27 219.562 153.77 219.562C152.822 219.562 149.842 219.062 149.77 219.062C148.93 219.062 152.558 220.732 152.822 221.062C153.301 221.661 149.27 221.562 147.27 221.062C146.144 220.889 151.795 223.655 150.631 223.655C149.007 223.655 140.699 222.361 142.77 223.062C143.581 223.494 143.77 223.728 145.27 224.062C147.27 224.506 148.294 225.062 149.27 225.062C150.087 225.048 139.166 226.36 141.27 227.062C145.77 228.062 143.5 228 148.5 228.5L149.27 227L152 224.062L155.5 222L160 219.562L164 218L167.27 217.062L172.27 216.062L176.77 215.562L183.011 216.062L188.77 217.562L193.27 219.732L196.888 222.062L199.27 224.331L201.27 227.062L203.27 229.562L204.77 232.562L206.139 235.801Z" stroke="black" stroke-width="4" stroke-linecap="round" stroke-linejoin="round"/>
<path d="M146.466 231.357C143.882 231.357 146.891 230.162 147.926 229.409L148.5 229L149.5 230.5L151.5 232L154 233L157 234C159.8 235.2 162.833 236.167 164 236.5L168 238L172 239.147L175.5 239.5L180.312 239.878H182.5H186.5L191.5 239.5L194.5 239L199.5 238L203 237.5L206 237C205.413 237.921 204 238.5 204.5 239.878C203 237.5 202 238 202 239.878C202 241.756 200.402 238.584 199.5 239C198.29 239.558 198.5 242.325 198 240.662C197.5 239 196.5 239 196.5 239C196.5 239 195.939 240.734 195.5 241.393C195.423 241.508 194.724 239.877 193 239.878C192.661 240.413 192.384 242.618 192 242.448C190.8 241.914 191.188 240.161 190 240.5C188.957 240.798 189.973 243.556 189 242.339C188.092 241.204 188.092 240.354 186.5 241.5C185.118 242.495 185.746 243.336 184.5 242.339C183.687 241.689 181 240.5 180.312 242.339C178.312 241.447 177.5 240 176.5 242.339C173 240.662 174.5 239.878 173 240.5C172.257 240.5 170.599 243.281 170.5 241.5C170.428 240.212 169.39 240.191 168 240.5C166.969 240.729 166 241.967 166 240.662C166 239.304 163.787 239.317 162.777 239.878C161.513 240.58 161.56 240.38 161.56 239.147C161.56 237.619 160.298 238.828 159.18 239.147C157.747 239.557 158.609 238.87 158 237.5C157.548 236.484 157.5 236.5 156.5 237.5L155.5 238.5C155.5 237 154.602 235.177 153.661 236.118C152.433 237.346 153.282 235.765 153.282 235.009C153.282 234.077 151.403 235.198 150.442 235.198C148.854 235.198 150.722 233.395 150.361 233.034C150.224 232.897 147.726 233.942 147.466 233.034C147.094 231.729 148.601 231.357 146.466 231.357Z" stroke="black" stroke-width="4" stroke-linecap="round" stroke-linejoin="round"/>
<path d="M260.481 224.093C260.481 219.54 264.076 215.286 265.123 210.633C270 208 269.919 208.054 271.5 207C273 206 276.262 202.074 276.262 203.207C276.262 205 276.377 205.413 275.798 206.456C275.024 207.848 274.405 210.897 274.405 212.49C274.405 221.772 275.333 231.349 275.333 240.337C275.333 244.704 276.262 248.754 276.262 252.869C276.262 256.984 276.014 262.035 276.262 266.5C276.492 270.648 279.046 274.705 279.046 278.86V291C276.921 288.638 275.5 283 271 280.252C267.5 278.115 255.535 275.971 250.683 280.252C249.331 281.445 250.683 275.5 250.683 275.5C250.794 273.503 250.683 273 251.199 269.5C251.199 266.728 252.5 264 253.5 257.5C256.5 247 255.5 245.5 258.418 234.768C259.307 231.5 260 227.5 260.481 224.093Z" stroke="black" stroke-width="4" stroke-linecap="round" stroke-linejoin="round"/>
<path d="M222.193 217.491C223.283 218.886 225 222 226 223.5C227 225 227.583 227.049 228.205 228.449C229.735 231.892 229.042 237.321 229.042 241.119C229.042 245.5 229.325 249.947 228.395 254.131C227.582 257.79 226.5 261.5 225.5 266.5C225.063 268.686 223.791 271.312 222.193 274.182M222.193 274.182C215.971 285.358 204.081 299.798 218.042 306.779C218.791 307.736 220.308 308.915 220.824 309.947C217.274 311.722 213.812 313.498 211.236 316.796C211.795 316.796 211 316.796 208.648 313.904C207.5 312 207 310.25 206.5 309C205.5 306.5 205.589 302.69 205.757 299.674C205.858 297.851 206.608 295.103 207.279 293.358C207.683 292.306 208.648 290.261 210.931 288.032C212.5 286.5 212.963 285.797 214 284.5C216.178 281.777 216.5 282 219.5 277.5L222.193 274.182Z" stroke="black" stroke-width="4" stroke-linecap="round" stroke-linejoin="round"/>
<path d="M279.301 291.366C280.03 291.783 281.308 292.092 281.848 292.767C282.274 293.3 283.315 294.559 283.829 295C284.91 295.927 285.159 298.013 285.159 299.404C285.159 300.925 285.414 302.414 285.414 303.974C285.414 305.242 285.159 306.666 285.159 307.794C285.159 308.96 284.373 310.253 283.829 311.233C282.939 312.835 282.5 313.976 280.829 314.855C279.261 315.68 277.547 316.201 275.99 316.893C275.265 317.215 272.411 317.627 272.169 318.11M232.728 327.554C232.529 327.554 232.719 327.294 232.573 327.112C232.393 326.887 232.529 326.078 232.529 325.805C232.529 325.035 232.528 324.015 232.318 323.282C231.89 321.783 231.874 320.373 231 319C230.5 318 230 316.5 229.5 316C229.364 315.522 227.753 314.599 227.349 314.361C226.494 313.858 225.666 313.376 224.759 312.922C223.847 312.466 222.861 312.366 221.969 311.97C220.5 311.97 218.75 311.308 217.5 311.97C216.5 312.5 215.5 312.922 214.797 313.5C213.5 314.361 212.5 315.5 211.41 316.596C212.4 317.091 213.656 317.882 214.797 318.29C217.167 319.136 219.887 319.086 222.169 320.227C223.191 320.738 224.019 320.916 225 321.5C225.547 321.825 226.952 322.301 228 323.282C229.3 324.499 230.483 325.141 231 325.805C231.517 326.47 232.533 326.668 232.728 327.554ZM232.728 327.554C233.5 327.753 234.153 327.753 234.41 327.753C235.478 327.753 236.455 327.554 237.521 327.554C238.723 327.554 239.897 327.753 241.107 327.753H246.276C247.186 327.753 248.467 328.182 248.467 327.056M248.467 327.056C248.467 326.099 248.268 325.234 248.268 324.267C248.268 321.812 249.694 319.02 250.847 316.906C251.899 314.977 253.676 313.149 255.54 312.114C257.595 310.972 260.832 310.819 263.111 310.819C264.819 310.819 266.164 310.689 267.793 311.461C268.668 311.875 269.678 312.542 270.383 313.21C270.766 313.572 272.035 314.12 272.165 314.704C272.311 315.362 272.354 316.4 272.619 316.995C273.402 318.758 266.586 319.389 265.302 319.784C262.521 320.64 259.583 321.094 256.835 322.075C254.771 322.813 252.54 323.124 250.46 323.924C249.52 324.285 248.467 325.74 248.467 327.056Z" stroke="black" stroke-width="4" stroke-linecap="round" stroke-linejoin="round"/>
<path d="M337.654 338.577C337.654 351.598 337.752 364.481 336.405 377.273C335.48 386.063 327.668 393.979 327.668 402.238" stroke="black" stroke-width="4" stroke-linecap="round" stroke-linejoin="round"/>
<path d="M286.937 229.002C288.569 225.067 290.569 217.139 295.008 215.166C299.206 213.301 302.922 209 306.923 206.882C309.59 205.469 315.077 205.173 318.069 205.173C321.784 205.173 325.499 205.173 329.215 205.173C337.12 205.173 341.901 209.061 348.432 212.689C351.473 214.379 355.119 217.025 356.887 220.12C357.735 221.603 360.344 226.119 361.499 226.696" stroke="black" stroke-width="4" stroke-linecap="round" stroke-linejoin="round"/>
<path d="M338 341.5C345.464 338.587 350.5 338 357.5 334C359.34 332.354 361.5 330.5 365 328.5C366.428 326.073 373 323 374 319.5M337.67 341.23C337.67 336.226 339.575 332.266 343.222 328.76C344.767 327.274 346.853 325.96 348.816 325.087C350.544 324.319 352.668 324.015 354.197 323.166C356.814 321.712 360.043 321.541 362.652 320.091C365.083 318.74 372.589 321.356 373.798 318.938" stroke="black" stroke-width="4" stroke-linecap="round" stroke-linejoin="round"/>
<path d="M174.71 406.568C174.71 411.847 174.305 417.238 175.436 422.325C176.266 426.059 178.956 432.045 182.397 434.069C186.22 436.318 190.523 438.92 194.311 441.542C201.897 446.794 212.376 449.01 221.002 452.09C233.047 456.392 247.06 458.069 259.863 458.069C265.429 458.069 270.876 458.412 276.261 456.916C284.332 454.674 292.299 452.256 300.176 449.443C304.43 447.923 307.784 444.698 311.919 443.08C315.82 441.553 319.587 439.335 323.022 436.973C327.927 433.601 332.686 430 336.901 425.785C342.956 419.73 350.043 415.111 353.77 407.037C355.928 402.361 357.656 397.171 357.656 391.963C357.656 388.14 353.317 389.315 351.506 391.578C349.356 394.266 346.569 395.193 343.99 397.514C342.824 398.564 342.261 399.537 341.514 400.845C340.471 402.67 338.902 403.106 337.67 404.646C336.037 406.687 331.924 407.601 329.983 410.027C328.14 412.331 324.46 413.1 322.297 415.023C320.546 416.579 316.352 419.741 314.183 420.361C310.786 421.332 307.131 423.972 303.848 425.614C301.591 426.742 295.226 428.299 293.855 430.012C292.475 431.738 286.817 432.549 284.631 433.642C282.052 434.932 277.119 436.546 274.254 436.546C266.564 436.546 259.367 441.841 251.151 440.347C246.888 439.572 242.895 437.315 238.51 437.315C234.523 437.315 230.887 436.378 226.98 435.82C220.227 434.855 214.279 432.339 208.19 428.859C202.816 425.788 198.632 417.82 192.774 416.518C189.222 415.728 186.342 411.495 183.165 409.813C180.239 408.264 177.327 406.568 173.941 406.568" stroke="black" stroke-width="4" stroke-linecap="round" stroke-linejoin="round"/>
<path d="M355.311 232.598C356.499 232.937 357.713 233.004 359.028 232.931C360.509 232.848 361.091 231.874 359.204 231.874C357.969 231.874 357.185 231.445 356.035 231.189C354.885 230.934 352.943 230.817 355.154 230.817C356.3 230.817 357.253 230.584 358.324 230.465C358.814 230.411 361.566 228.649 360.594 228.372C360.134 228.24 359.634 229.058 359.459 229.409C359.216 229.893 360.531 228.907 359.889 228.724C357.62 228.076 355.273 228.718 353.041 227.726C352.296 227.395 352.696 227.648 353.393 227.648C354.036 227.648 354.386 227.447 354.978 227.315C355.812 227.13 356.607 226.001 357.424 225.535C357.732 225.359 355.768 225.535 355.154 225.535C354.061 225.535 353.115 225.182 351.985 225.182C350.847 225.182 348.899 224.478 351.104 224.478C352.236 224.478 352.684 224.291 353.589 223.774C353.953 223.566 355.792 221.714 355.076 222.287C353.877 223.246 350.269 221.909 349.011 221.68C348.64 221.613 345.808 221.361 346.702 221.308C348.088 221.227 348.674 220.847 349.871 220.174C349.871 220.174 348 220.174 346.702 220.174C345.404 220.174 344.201 219.547 343.004 219.547C341.762 219.547 343.754 218.746 344.5 218C346.127 216.373 343.5 217.356 342.476 217.356C340.5 217.356 339 216.338 337.388 216.045C335.62 215.724 337.341 215.745 338.5 215C340.804 213.519 337.241 214.5 336 214.5C333.765 214.5 332.027 214.044 329.797 213.913C329.462 213.893 330.664 211.974 330.853 211.643C331.414 210.661 331.241 210.547 329.5 211.995C328.5 213 328.274 212.897 327.684 213.56C326.98 214.353 325.923 214.343 325.923 213.208C325.923 212.073 326.953 211.211 327.332 210.547C328.351 208.763 326.779 209.711 325.923 210.117C324.267 210.901 322.286 211.999 321.168 213.365C320.004 214.787 320.779 212.809 321.012 211.995C321.214 211.288 321.91 209.722 320.64 210.469C319.239 211.293 317.883 213.074 316.61 214.147C315.872 214.769 313.5 217.224 313.5 214.5C313.5 213.964 313.831 212.235 313.5 212.5C312.727 213.118 310.896 218.06 309.996 217.16C308.848 216.013 309.717 211.195 307.961 215.145C307.389 216.433 307.356 220.86 305.77 219.274C305.064 218.567 305.737 217.133 305.477 216.221C305.399 215.951 304.62 217.908 304.44 218.315C303.995 219.314 303.444 220.919 303.383 222.013C303.306 223.406 302.501 221.654 302.346 221.113C302.255 220.794 301.974 217.704 301.974 219.547C301.974 220.547 301.284 221.779 300.839 222.717C300.484 223.467 299.826 225.264 299 225.5C298.116 225.753 298.5 223.258 298.5 222.717C298.5 221.875 298 224 297.122 225.965C296.244 227.93 296.383 227.97 296.339 228.704C296.149 231.935 295.283 228.094 295.283 226.767C295.283 225.834 294.578 224.472 294.578 226.239C294.578 227.203 293.924 228.206 293.874 229.056C293.842 229.607 293.249 231.886 293.189 231.678C293.042 231.164 293.235 229.096 292.309 229.096C291.827 229.096 291.785 231.794 291.761 232.226C291.684 233.602 290.486 235.56 290 236.805L293.5 232.5L300.839 225L308.5 219.274L316.61 215.497L324 214.5L333 216.045L339 219.274L344.5 222.717L355.311 232.598ZM355.311 232.598C353.638 232.12 353.393 232.717 353.393 230.465" stroke="black" stroke-width="4" stroke-linecap="round" stroke-linejoin="round"/>
<path d="M188.5 348L195 353.5L205 357L215.5 359L227.5 361H258L273 359L286 357L298.5 353.5L310.5 350M188 346.5L205.5 349.648H229.5L236 348.598H246L252 349.648L256 348.598H267L272 349.648L282 351.221H302.5L312 349.648L302.5 355.943L296.5 361.189L290 365.91L284.5 369.582L276.5 373.254L268.5 375.877L260 376.926H246L231.5 378.5L220 375.877L212 373.254L203.5 366.959L196 361.189L192 355.943L188 346.5Z" stroke="black" stroke-width="4"/>
<path d="M197.004 309C199.443 304.61 201.143 301.621 203.066 296.983C200.753 298.139 198.876 299.333 197.004 301.412C193.522 305.281 189.768 307.103 185.5 309C179.426 311.699 178.601 314.036 174.74 319C170.301 324.708 170.544 335.658 170.544 342.619C170.544 346.755 169.926 350.025 171.5 355.732C172.539 359.5 174.108 362.195 174.74 363.076C176.838 366 179.565 368.058 177.072 364.941C176.238 363.899 174.822 357.207 174.74 355.732C174.547 352.26 174.74 348.72 174.74 345.241C174.74 342.368 174.973 337.676 177.072 333.5C181.733 321.676 180 323.5 184.5 320.5C186.5 316 195.45 311.798 197.004 309Z" stroke="black" stroke-width="4" stroke-linecap="round" stroke-linejoin="round"/>
<path d="M206.077 243.112C203.337 246.727 196.941 251.928 192.309 252.957C188.267 253.855 184.166 256.998 179.953 257.233C170.858 257.738 161.728 260.763 152.417 260.763" stroke="black" stroke-width="4" stroke-linecap="round" stroke-linejoin="round"/>
<path d="M289.39 243.818C293.485 247.913 298.011 252.121 303.158 254.408C307.038 256.133 312.552 259.814 316.926 260.057C321.56 260.314 325.76 261.469 330.694 261.469C335.284 261.469 339.873 261.469 344.462 261.469" stroke="black" stroke-width="4" stroke-linecap="round" stroke-linejoin="round"/>
</svg>
