<svg width="315" height="330" viewBox="0 0 315 330" fill="none" xmlns="http://www.w3.org/2000/svg">
<circle cx="92.5" cy="22.5" r="12.5" fill="#FFD700"/>
<circle cx="22.5" cy="22.5" r="12.5" fill="#F2A2A2"/>
<circle cx="57.5" cy="97.5" r="12.5" fill="#0367A6"/>
<path d="M70 60C63.3696 60 57.0107 57.3661 52.3223 52.6777C47.6339 47.9893 45 41.6304 45 35C45 28.3696 47.6339 22.0107 52.3223 17.3223C57.0107 12.6339 63.3696 10 70 10L70 60Z" fill="#162A36"/>
<path d="M80 60C86.6304 60 92.9893 62.6339 97.6777 67.3223C102.366 72.0107 105 78.3696 105 85C105 91.6304 102.366 97.9893 97.6777 102.678C92.9893 107.366 86.6304 110 80 110L80 85L80 60Z" fill="#8AD0B9"/>
<circle cx="302.5" cy="22.5" r="12.5" fill="#8AD0B9"/>
<circle cx="232.5" cy="22.5" r="12.5" fill="#FFD700"/>
<circle cx="267.5" cy="97.5" r="12.5" fill="#162A36"/>
<path d="M280 60C273.37 60 267.011 57.3661 262.322 52.6777C257.634 47.9893 255 41.6304 255 35C255 28.3696 257.634 22.0107 262.322 17.3223C267.011 12.6339 273.37 10 280 10L280 60Z" fill="#F24130"/>
<path d="M290 60C296.63 60 302.989 62.6339 307.678 67.3223C312.366 72.0107 315 78.3696 315 85C315 91.6304 312.366 97.9893 307.678 102.678C302.989 107.366 296.63 110 290 110L290 60Z" fill="#0367A6"/>
<path fill-rule="evenodd" clip-rule="evenodd" d="M229.567 46.903C226.534 45.6466 223.283 45 220 45V69V70V110H245V70V69H244.98C244.862 66.0583 244.226 63.1577 243.097 60.4329C241.841 57.3998 239.999 54.6438 237.678 52.3223C235.356 50.0009 232.6 48.1594 229.567 46.903Z" fill="#F24130"/>
<circle cx="92.5" cy="132.5" r="12.5" fill="#0367A6"/>
<circle cx="22.5" cy="132.5" r="12.5" fill="#FFD700"/>
<circle cx="57.5" cy="207.5" r="12.5" fill="#F24130"/>
<path d="M70 170C63.3696 170 57.0107 167.366 52.3223 162.678C47.6339 157.989 45 151.63 45 145C45 138.37 47.6339 132.011 52.3223 127.322C57.0107 122.634 63.3696 120 70 120L70 170Z" fill="#162A36"/>
<path d="M80 170C86.6304 170 92.9893 172.634 97.6777 177.322C102.366 182.011 105 188.37 105 195C105 201.63 102.366 207.989 97.6777 212.678C92.9893 217.366 86.6304 220 80 220L80 170Z" fill="#F24130"/>
<path fill-rule="evenodd" clip-rule="evenodd" d="M19.5671 156.903C16.5339 155.647 13.283 155 10 155V179V180V220H35V180V179H34.98C34.8622 176.058 34.2256 173.158 33.097 170.433C31.8406 167.4 29.9991 164.644 27.6777 162.322C25.3562 160.001 22.6002 158.159 19.5671 156.903Z" fill="#0367A6"/>
<circle cx="92.5" cy="242.5" r="12.5" fill="#162A36"/>
<circle cx="22.5" cy="242.5" r="12.5" fill="#8AD0B9"/>
<circle cx="57.5" cy="317.5" r="12.5" fill="#162A36"/>
<path d="M70 280C63.3696 280 57.0107 277.366 52.3223 272.678C47.6339 267.989 45 261.63 45 255C45 248.37 47.6339 242.011 52.3223 237.322C57.0107 232.634 63.3696 230 70 230L70 280Z" fill="white"/>
<path d="M80 280C86.6304 280 92.9893 282.634 97.6777 287.322C102.366 292.011 105 298.37 105 305C105 311.63 102.366 317.989 97.6777 322.678C92.9893 327.366 86.6304 330 80 330L80 280Z" fill="#FFD700"/>
<path fill-rule="evenodd" clip-rule="evenodd" d="M19.5671 266.903C16.5339 265.647 13.283 265 10 265V289V290V330H35V290V289H34.98C34.8622 286.058 34.2256 283.158 33.097 280.433C31.8406 277.4 29.9991 274.644 27.6777 272.322C25.3562 270.001 22.6002 268.159 19.5671 266.903Z" fill="#FFD700"/>
<circle cx="302.5" cy="132.5" r="12.5" fill="#0367A6"/>
<circle cx="232.5" cy="132.5" r="12.5" fill="#8AD0B9"/>
<circle cx="267.5" cy="207.5" r="12.5" fill="#F24130"/>
<path d="M280 170C273.37 170 267.011 167.366 262.322 162.678C257.634 157.989 255 151.63 255 145C255 138.37 257.634 132.011 262.322 127.322C267.011 122.634 273.37 120 280 120L280 170Z" fill="#0367A6"/>
<path d="M290 170C296.63 170 302.989 172.634 307.678 177.322C312.366 182.011 315 188.37 315 195C315 201.63 312.366 207.989 307.678 212.678C302.989 217.366 296.63 220 290 220L290 170Z" fill="#F2A2A2"/>
<path fill-rule="evenodd" clip-rule="evenodd" d="M229.567 156.903C226.534 155.647 223.283 155 220 155V179V180V220H245V180V179H244.98C244.862 176.058 244.226 173.158 243.097 170.433C241.841 167.4 239.999 164.644 237.678 162.322C235.356 160.001 232.6 158.159 229.567 156.903Z" fill="#0367A6"/>
<circle cx="302.5" cy="242.5" r="12.5" fill="#FFD700"/>
<circle cx="232.5" cy="242.5" r="12.5" fill="#F24130"/>
<circle cx="267.5" cy="317.5" r="12.5" fill="#F24130"/>
<path d="M280 280C273.37 280 267.011 277.366 262.322 272.678C257.634 267.989 255 261.63 255 255C255 248.37 257.634 242.011 262.322 237.322C267.011 232.634 273.37 230 280 230L280 280Z" fill="#F24130"/>
<path d="M290 280C296.63 280 302.989 282.634 307.678 287.322C312.366 292.011 315 298.37 315 305C315 311.63 312.366 317.989 307.678 322.678C302.989 327.366 296.63 330 290 330L290 280Z" fill="#FFD700"/>
<path fill-rule="evenodd" clip-rule="evenodd" d="M229.567 266.903C226.534 265.647 223.283 265 220 265V289V290V330H245V290V289H244.98C244.862 286.058 244.226 283.158 243.097 280.433C241.841 277.4 239.999 274.644 237.678 272.322C235.356 270.001 232.6 268.159 229.567 266.903Z" fill="#F2A2A2"/>
<circle r="12.5" transform="matrix(1 0 0 -1 197.5 97.5)" fill="#0367A6"/>
<circle r="12.5" transform="matrix(1 0 0 -1 127.5 97.5)" fill="#F2A2A2"/>
<circle r="12.5" transform="matrix(1 0 0 -1 162.5 22.5)" fill="#FFD700"/>
<path d="M175 60C168.37 60 162.011 62.6339 157.322 67.3223C152.634 72.0107 150 78.3696 150 85C150 91.6304 152.634 97.9893 157.322 102.678C162.011 107.366 168.37 110 175 110L175 60Z" fill="#F24130"/>
<path d="M185 60C191.63 60 197.989 57.3661 202.678 52.6777C207.366 47.9893 210 41.6304 210 35C210 28.3696 207.366 22.0107 202.678 17.3223C197.989 12.6339 191.63 10 185 10L185 60Z" fill="#0367A6"/>
<path fill-rule="evenodd" clip-rule="evenodd" d="M140 51H139.98C139.862 53.9417 139.226 56.8423 138.097 59.5671C136.841 62.6002 134.999 65.3562 132.678 67.6777C130.356 69.9991 127.6 71.8406 124.567 73.097C121.534 74.3534 118.283 75 115 75V51V50V10H140V50V51Z" fill="white"/>
<circle r="12.5" transform="matrix(1 0 0 -1 197.5 207.5)" fill="white"/>
<circle r="12.5" transform="matrix(1 0 0 -1 127.5 207.5)" fill="#8AD0B9"/>
<circle r="12.5" transform="matrix(1 0 0 -1 162.5 132.5)" fill="#162A36"/>
<path d="M175 170C168.37 170 162.011 172.634 157.322 177.322C152.634 182.011 150 188.37 150 195C150 201.63 152.634 207.989 157.322 212.678C162.011 217.366 168.37 220 175 220L175 170Z" fill="#FFD700"/>
<path d="M185 170C191.63 170 197.989 167.366 202.678 162.678C207.366 157.989 210 151.63 210 145C210 138.37 207.366 132.011 202.678 127.322C197.989 122.634 191.63 120 185 120L185 170Z" fill="white"/>
<path fill-rule="evenodd" clip-rule="evenodd" d="M140 161H139.98C139.862 163.942 139.226 166.842 138.097 169.567C136.841 172.6 134.999 175.356 132.678 177.678C130.356 179.999 127.6 181.841 124.567 183.097C121.534 184.353 118.283 185 115 185V161V160V120H140V160V161Z" fill="#F24130"/>
<circle r="12.5" transform="matrix(1 0 0 -1 197.5 317.5)" fill="#8AD0B9"/>
<circle r="12.5" transform="matrix(1 0 0 -1 127.5 317.5)" fill="#0367A6"/>
<circle r="12.5" transform="matrix(1 0 0 -1 162.5 242.5)" fill="#162A36"/>
<path d="M175 280C168.37 280 162.011 282.634 157.322 287.322C152.634 292.011 150 298.37 150 305C150 311.63 152.634 317.989 157.322 322.678C162.011 327.366 168.37 330 175 330L175 280Z" fill="#162A36"/>
<path d="M185 280C191.63 280 197.989 277.366 202.678 272.678C207.366 267.989 210 261.63 210 255C210 248.37 207.366 242.011 202.678 237.322C197.989 232.634 191.63 230 185 230L185 280Z" fill="#0367A6"/>
<path fill-rule="evenodd" clip-rule="evenodd" d="M140 271H139.98C139.862 273.942 139.226 276.842 138.097 279.567C136.841 282.6 134.999 285.356 132.678 287.678C130.356 289.999 127.6 291.841 124.567 293.097C121.534 294.353 118.283 295 115 295V271V270V230H140V270V271Z" fill="#FFD700"/>
<path fill-rule="evenodd" clip-rule="evenodd" d="M19.5671 46.903C16.5339 45.6466 13.283 45 10 45V69V70V110H35V70V69H34.98C34.8622 66.0583 34.2256 63.1577 33.097 60.4329C31.8406 57.3998 29.9991 54.6438 27.6777 52.3223C25.3562 50.0009 22.6002 48.1594 19.5671 46.903Z" fill="#8AD0B9"/>
</svg>
